<?xml version="1.0" encoding="iso-8859-1"?>
<!-- Generator: Adobe Illustrator 16.0.0, SVG Export Plug-In . SVG Version: 6.00 Build 0)  -->
<!DOCTYPE svg PUBLIC "-//W3C//DTD SVG 1.1//EN" "http://www.w3.org/Graphics/SVG/1.1/DTD/svg11.dtd">
<svg version="1.1" id="Capa_1" xmlns="http://www.w3.org/2000/svg" xmlns:xlink="http://www.w3.org/1999/xlink" x="0px" y="0px"
	 width="379.815px" height="379.816px" viewBox="0 0 379.815 379.816" style="enable-background:new 0 0 379.815 379.816;"
	 xml:space="preserve">
<g>
	<g id="_x34_82._Gesture_-_Pull_to_Refresh">
		<g>
			<path d="M252.713,307.814h-15.701v-15.701c0-8.664-7.037-15.701-15.701-15.701h-62.803c-8.668,0-15.701,7.037-15.701,15.701
				v15.701h-15.701c-8.666,0-10.733,4.973-4.592,11.108l56.294,56.292c6.133,6.136,16.069,6.136,22.201,0l56.305-56.292
				C263.444,312.787,261.372,307.814,252.713,307.814z M284.183,72.417c-7.918-7.959-9.605-14.168-20.521-6.657
				c-3.174,2.178-6.688,4.593-9.706,6.678c-9.085,7.721,11.453,27.89,6.805,21.252c9.77,13.959,15.505,30.933,15.505,49.263
				c0,47.694-38.664,86.354-86.356,86.354s-86.354-38.66-86.354-86.354c0-42.319,30.466-77.459,70.653-84.859V26.372
				c-57.589,7.69-102.053,56.885-102.053,116.582c0,65.035,52.722,117.756,117.754,117.756c65.032,0,117.754-52.722,117.754-117.756
				C307.662,116.491,298.926,92.08,284.183,72.417z M188.089,79.991l51.099-30.604c7.454-4.455,7.466-11.706,0.048-16.192
				L187.647,1.977c-7.417-4.476-13.408-1.096-13.37,7.576l0.276,62.802C174.584,81.025,180.643,84.446,188.089,79.991z"/>
		</g>
	</g>
</g>
<g>
</g>
<g>
</g>
<g>
</g>
<g>
</g>
<g>
</g>
<g>
</g>
<g>
</g>
<g>
</g>
<g>
</g>
<g>
</g>
<g>
</g>
<g>
</g>
<g>
</g>
<g>
</g>
<g>
</g>
</svg>
